<?xml version="1.0" encoding="utf-8"?>
<!-- Generator: Adobe Illustrator 24.3.0, SVG Export Plug-In . SVG Version: 6.00 Build 0)  -->
<svg version="1.1" id="Layer_1" xmlns="http://www.w3.org/2000/svg" xmlns:xlink="http://www.w3.org/1999/xlink" x="0px" y="0px"
	 viewBox="0 0 2010 498.9" style="enable-background:new 0 0 2010 498.9;" xml:space="preserve">
<style type="text/css">
	.st0{clip-path:url(#SVGID_2_);}
	.st1{fill:#F05424;}
	.st2{fill:none;}
</style>
<g>
	<g>
		<defs>
			<polygon id="SVGID_1_" points="-116.4,812.5 40.4,-1606.4 1304.1,298.4 1304.1,742.3 			"/>
		</defs>
		<clipPath id="SVGID_2_">
			<use xlink:href="#SVGID_1_"  style="overflow:visible;"/>
		</clipPath>
		<g class="st0">
			<path class="st1" d="M52.3,194.7c-8.8-10.2-19.5-13.6-32-9.3c-0.4,0.1-3.1,1.2-6.7,3c-7.7,3.8-19.7,10.8-23.2,18.8
				c-4.8,11,14.1-5.6,21.2-9.6c4.5-2.6,9.3-4.6,14.4-5.9c8.2-1.8,14.5,0.8,19.1,5.9c14,15.8,17.3,38.7,18.7,38.1
				c1.2-0.5,3.7-7.9,2.8-12.5C64.1,211.8,60.1,203.7,52.3,194.7"/>
			<path class="st1" d="M52.6,194.5c-8.9-10.4-19.7-13.9-32.4-9.5c-0.4,0.1-3.1,1.2-6.8,3c-7.8,3.8-20,11-23.5,19.1
				c-4.8,11.1,14.3-5.7,21.4-9.8c4.5-2.7,9.4-4.7,14.5-6c8.3-1.8,14.7,0.8,19.3,6C59.3,213.4,62.6,236.7,64,236
				c1.2-0.5,3.7-8,2.8-12.7C64.5,211.8,60.4,203.6,52.6,194.5"/>
			<path class="st1" d="M200.9,272.6c-17-7.7-25.9-13.5-28.9-33.2c-1-6.6-2.2-13.2-3.8-19.7c-1.9-8.3-5.9-16.2-12.6-20.4
				c-9-5.8-20.2-6.7-30-2.4c-15.1,6.2-28.6,14.7-39.7,27.5C46.7,270,68.7,334.2,67.7,373.3c-0.4,14.8-21.3,160.2-18.9,162.3
				c3.6-14.9,28.1-134.5,28.4-168.9c0.2-26.2-11.3-93.2,4.5-118.9c14.6-23.8,30.5-35.2,54.1-43.7c24.1-8.7,29.5,38.7,30.8,46.5
				c1.7,10.5,7.9,16.6,16,21.9c10,6.5,20.7,10.8,31.8,14.7c7.8,2.7,13.6,7.6,18.4,14.8c5.6,8.3,8.1,17.7,9,26.9
				c2.6,25.5-1.4,39.8-24.9,51.7c-9.1,4.6-18.8,7.8-28.2,11.7c-7.9,3.4-15.7,7.2-23.6,10.5c-22.4,9.5-31.9,37.9-39,51.2
				c-4.9,8.9-48.4,52.4-55.6,57.9c2.9,1.4,49.7-35.1,51.4-37c13.3-14.4,15-31,27.9-47.2c5-6.2,12.8-14.3,19.3-17.4
				c12.8-6.1,26.1-10.9,39.1-16.2c10.8-4.5,21.4-9.3,30.1-17.9c5.4-5.3,9.2-12.1,10.7-19.5c4-18.1,1.8-35.4-5.4-52.2
				C232.5,278.4,209.5,276.5,200.9,272.6"/>
			<path class="st1" d="M201.1,272.4c-17.1-7.7-26-13.6-29.1-33.4c-1-6.6-2.3-13.2-3.8-19.8c-2-8.3-5.9-16.3-12.7-20.5
				c-9-5.8-20.3-6.7-30.1-2.4c-15.2,6.2-28.8,14.8-39.8,27.6c-39.4,45.8-17.2,110.2-18.2,149.4C67,388.4,46,534.3,48.3,536.5
				c3.6-14.9,28.2-135,28.5-169.5c0.2-26.3-11.3-93.6,4.5-119.3c14.6-23.9,30.7-35.4,54.3-43.8c24.3-8.7,29.6,38.8,30.9,46.7
				c1.7,10.5,7.9,16.7,16.1,22c10,6.5,20.8,10.9,31.9,14.7c7.9,2.7,13.6,7.6,18.5,14.9c5.6,8.3,8.1,17.8,9,27
				c2.6,25.6-1.4,39.9-25.1,51.9c-9.1,4.6-18.9,7.8-28.3,11.8c-8,3.4-15.8,7.2-23.7,10.5c-22.5,9.4-32.1,38-39.2,51.3
				c-4.8,8.9-48.5,52.5-55.6,58c3,1.3,49.9-35.4,51.7-37.3c13.4-14.5,15-31.1,28-47.4c5-6.3,12.8-14.3,19.4-17.4
				c12.8-6.1,26.2-10.9,39.3-16.3c10.9-4.5,21.4-9.3,30.2-17.9c5.5-5.3,9.2-12.1,10.7-19.6c4.1-18.2,1.8-35.5-5.4-52.4
				C232.8,278.2,209.7,276.3,201.1,272.4"/>
			<path class="st1" d="M269.4,400.1c-9.4-5.9-19-5.6-28.9-2.4c0,0-6.4,1.6-7.5,9.4c1.6,0.8,7.9-1.4,9-1.8c8.4-2.9,16.1-1,23.6,3.4
				c13.4,7.8,29.4,34.5,21.8,48.8c-6,11.4-16.3,17-27.8,20.8c-14.7,5-29.2,3.5-43.9-0.3c-16.6-4.2-33.1-4.5-48.3,5.6
				c-3.3,2.2-6.4,4.6-9.5,7c-2.6,1.9-5.2,3.8-7.8,5.6h0.1c4.3,0.3,8.5,1.1,12.7,2.2c1.8-1.4,3.6-2.8,5.4-4.2
				c12.6-10.2,27-11.2,41.6-8.1c11.9,2.5,23.4,5.3,35.9,3.9c14.7-1.7,27.7-6.8,39.2-16.1c12.7-10.4,16.2-23.2,11-39
				C291.1,420.2,282.6,408.4,269.4,400.1"/>
			<path class="st1" d="M269.4,399.7c-9.5-6-19.2-5.7-29.3-2.4c0,0-6.5,1.6-7.6,9.5c1.6,0.8,8-1.4,9.1-1.8c8.5-2.9,16.3-1,23.9,3.4
				c13.6,7.9,29.8,34.8,22.1,49.2c-6.1,11.5-16.5,17.1-28.1,21c-14.9,5-29.6,3.5-44.4-0.3c-16.8-4.2-33.5-4.5-48.9,5.6
				c-3.3,2.2-6.4,4.6-9.6,7c-2.6,2-5.2,3.8-7.9,5.6h0.1c4.3,0.3,8.6,1.1,12.8,2.3c1.9-1.4,3.7-2.8,5.5-4.3
				c12.8-10.3,27.3-11.3,42.1-8.1c12,2.5,23.7,5.3,36.3,3.9c14.9-1.7,28.1-6.8,39.7-16.2c12.9-10.5,16.4-23.4,11.1-39.4
				C291.4,419.9,282.7,407.9,269.4,399.7"/>
			<path class="st1" d="M313.8,415c3.8-3.4,7.8,0.4,8.5,3.9c0.7,3.7-1.7,5.8-4.5,5.9c-2.5,0.1-5.6-1.5-5.9-4.4
				C311.8,418.4,312.5,416.5,313.8,415"/>
			<path class="st1" d="M313.6,414.7c4.1-3.6,8.4,0.4,9.1,4.2c0.7,4-1.8,6.3-4.9,6.4c-2.7,0.1-6-1.6-6.4-4.7
				C311.3,418.4,312.1,416.3,313.6,414.7"/>
			<path class="st1" d="M298.6,387.1c0.8,3.6-1.6,5.6-3.7,5.9c-2.4,0.3-5.9-2.6-5.9-6.1c0.2-1.9,1.3-3.5,2.9-4.4
				C294.9,381.2,297.8,383.7,298.6,387.1"/>
			<path class="st1" d="M299,387c0.9,3.9-1.7,6-4,6.4c-2.6,0.4-6.4-2.9-6.4-6.6c0.2-2,1.4-3.8,3.2-4.8
				C295,380.7,298.2,383.4,299,387"/>
			<path class="st1" d="M319.8,458.8c-2.4,0.6-4-2.6-4.6-4.2s0-4.1,2.4-4.4c1.3-0.1,2.7,0.3,3.6,1.2
				C323.2,454,322.8,457.9,319.8,458.8"/>
			<path class="st1" d="M319.9,459.2c-2.7,0.7-4.5-2.9-5.1-4.6c-0.6-1.7,0-4.6,2.7-4.8c1.5-0.1,3,0.4,4.1,1.4
				C323.8,454,323.3,458.3,319.9,459.2"/>
			<path class="st1" d="M511.7,550.4c-0.3-3-0.3-6-0.2-9c0.3-7.8,1.7-18.7,5-25c6.3-12.4,13.8-24.2,20.8-36.3
				c5.8-10,11.1-20.1,12.9-32c1.2-7.3,0.2-14.7-2.8-21.4c-7.1-16.3-18.5-28-33.5-36.5c-23.1-13.1-41.8-0.5-50.6,1.8
				c-17.3,4.5-27.3,5.5-40.8-7.7c-4.5-4.4-9.2-8.7-14-12.7c-6.1-5.1-13.6-8.8-21.1-7.9c-10.1,1.3-18.6,6.7-24.3,16.5
				c-8.1,14-13.6,28.7-14.8,45.2c-1.6,22.4,5,41.3,15,57.9c4.3,1.8,8,4.7,10.8,8.3c4.4,1.6,8.3,4.4,11.4,8c2,1,3.9,2.2,5.6,3.6
				c-16-19.1-31.6-40.6-33-57.3c-2.2-27,3.5-45.5,16.8-66.3c13.6-21.4,44.3,11.5,49.7,16.7c7.2,7,15.4,7.8,24.6,6.9
				c11.2-1.1,21.9-4.4,32.5-8.2c7.5-2.7,14.6-2.5,22.4,0c8.9,2.9,16.1,8.6,22,15c16.3,17.9,21.3,31.2,10,54.6
				c-4.4,9-10,17.4-15,26.1c-4.2,7.4-8,15.1-12.1,22.4c-6.3,11.1-6.8,24.1-5.5,36C506.4,549.2,509.1,549.6,511.7,550.4"/>
			<path class="st1" d="M511.9,551.1c-0.3-3-0.3-6.1-0.2-9.1c0.3-7.9,1.8-18.8,5-25.2c6.4-12.5,13.9-24.3,20.9-36.5
				c5.8-10.1,11.2-20.2,13-32.2c1.2-7.3,0.2-14.8-2.8-21.5c-7.1-16.4-18.6-28.2-33.6-36.7c-23.2-13.2-41.9-0.5-50.8,1.8
				c-17.4,4.5-27.5,5.5-41-7.7c-4.5-4.4-9.2-8.7-14-12.8c-6.2-5.1-13.6-8.8-21.2-7.9c-10.1,1.3-18.7,6.7-24.4,16.6
				c-8.1,14-13.7,28.9-14.9,45.5c-1.6,22.5,5,41.5,15.1,58.2c3.9,6,18.1,22.5,21.1,26.3c4.3,1.6-1.9-13.7,1.3-10
				c2,1,3.9,2.2,5.7,3.7c-16-19.3-31.8-40.9-33.2-57.6c-2.2-27.2,3.6-45.8,16.9-66.7c13.6-21.5,44.5,11.5,49.9,16.8
				c7.2,7,15.5,7.9,24.7,6.9c11.3-1.1,22-4.4,32.6-8.3c7.5-2.7,14.7-2.5,22.5,0c8.9,2.9,16.2,8.6,22.1,15.1c16.4,18,21.3,31.4,10,55
				c-4.4,9.1-10,17.5-15,26.3c-4.2,7.4-8,15.2-12.2,22.6c-6.3,11.2-6.8,24.2-5.5,36.2C506.6,549.8,509.3,550.2,511.9,551.1"/>
			<path class="st1" d="M580,554.2c0.9-0.1,1.8-0.2,2.7-0.2c2.6-1.8,5.3-3.4,8.2-4.9c10.4-5.3,20.7-10.1,29.3-18.8
				c10.1-9.8,17.3-22.3,20.6-36c3.8-15.6-0.8-27.6-13.6-36.5c-12-8.3-25.1-12.1-39.7-10.5c-10.4,1.2-17.5,7.2-23.2,15.7
				c-2.4,3.5-2.5,8.1-0.4,11.7c1.7-0.4,5.2-5.9,5.8-6.8c4.8-7.3,11.7-10.5,19.8-11.7c14.5-2.2,41.6,8.5,43.9,24
				c1.8,12.4-2.8,22.8-9.3,32.7c-8.3,12.8-20.2,20.4-33.4,26.4c-8,3.7-15.3,8.2-21.3,14.2C572.9,553.1,576.5,553.3,580,554.2"/>
			<path class="st1" d="M579.8,554.6c0.9-0.1,1.8-0.2,2.7-0.2c2.6-1.8,5.4-3.5,8.2-4.9c10.5-5.3,20.9-10.2,29.6-19
				c10.2-9.9,17.4-22.5,20.9-36.3c3.9-15.8-0.8-27.8-13.7-36.8c-12.1-8.4-25.4-12.3-40.1-10.6c-10.5,1.2-17.7,7.3-23.5,15.9
				c-2.4,3.5-2.6,8.1-0.4,11.8c1.7-0.4,5.2-5.9,5.8-6.9c4.8-7.4,11.8-10.6,20-11.9c14.7-2.2,42,8.5,44.4,24.2
				c1.9,12.5-2.8,23-9.4,33c-8.4,12.9-20.4,20.5-33.7,26.6c-8.1,3.7-15.5,8.3-21.5,14.3C572.7,553.6,576.3,553.7,579.8,554.6"/>
			<path class="st1" d="M629.7,431.7c1-4.8,6.1-4.4,8.6-2.2c2,1.6,2.2,4.5,0.6,6.5c-0.2,0.3-0.5,0.5-0.7,0.7c-1.8,1.6-5,2.3-6.9,0.3
				C630,435.5,629.5,433.6,629.7,431.7"/>
			<path class="st1" d="M629.3,431.6c1.1-5.3,6.7-4.8,9.3-2.4c2.1,1.7,2.5,4.9,0.7,7c-0.2,0.3-0.5,0.6-0.8,0.8
				c-2,1.7-5.4,2.5-7.5,0.3C629.7,435.7,629.1,433.6,629.3,431.6"/>
			<path class="st1" d="M602.3,419.7c2,1.5,2.3,4.3,0.9,6.2c-0.1,0.2-0.3,0.3-0.4,0.5c-1.7,1.7-5.9,1.6-7.8-1
				c-0.9-1.6-0.9-3.5-0.2-5.2C596.2,417.5,599.8,417.6,602.3,419.7"/>
			<path class="st1" d="M602.5,419.4c2.1,1.6,2.6,4.7,0.9,6.9c-0.1,0.2-0.3,0.3-0.4,0.5c-1.8,1.9-6.4,1.7-8.5-1.1
				c-0.9-1.8-1-3.8-0.3-5.7C595.9,416.9,599.9,417.1,602.5,419.4"/>
			<path class="st1" d="M658.7,461.5c-1.5,2-4.5,0.5-5.8-0.4c-1.5-0.9-1.9-2.8-1-4.3c0.1-0.2,0.3-0.4,0.4-0.5
				c0.9-0.9,2.2-1.4,3.5-1.3C658.7,455.7,660.5,459.1,658.7,461.5"/>
			<path class="st1" d="M659,461.8c-1.6,2.2-4.9,0.5-6.4-0.4c-1.6-1-2.1-3.2-1.1-4.8c0.1-0.2,0.3-0.4,0.4-0.6c1-1,2.4-1.6,3.8-1.5
				C659.1,455.4,661.1,459.1,659,461.8"/>
			<path class="st1" d="M900.7,553.5c-2.1-2.1-4-4.4-5.8-6.8c-4.6-6.2-10.3-15.5-11.7-22.6c-2.9-13.8-4.5-27.9-6.6-41.9
				c-1.8-11.6-4-23-10-33.3c-3.5-6.3-8.9-11.4-15.5-14.5c-15.6-7.7-31.7-9-48.4-5.3c-25.9,5.6-32.4,27.9-37.7,35.6
				c-10.5,15.2-17.6,22.7-36.1,21.8c-6.2-0.4-12.4-0.5-18.6-0.3c-7.9,0.2-15.9,2.5-21.1,8.3c-7,7.8-10.1,17.7-8.4,29.1
				c2.5,16.2,7.4,31.3,16.8,44.7c12.6,18.2,29.6,28.2,47.6,34.2c4.3-1.5,9-1.8,13.5-1c4.3-1.7,9.1-2.3,13.7-1.6c2.1-0.6,4.4-1,6.6-1
				c-24.2-3.9-49.6-9.7-61-21.5c-18.5-19.2-25.6-37.3-28.4-62.3c-3-25.6,41-21.3,48.4-20.9c9.8,0.5,16.7-4.4,23.2-11.4
				c7.9-8.5,14.1-18.2,19.8-28.3c4.1-7.2,9.7-11.8,17.2-15.2c8.6-3.8,17.7-4.3,26.2-3.4c23.6,2.6,35.7,9.5,41.7,35.1
				c2.3,9.9,3.2,20.1,4.8,30.2c1.4,8.5,3.3,17,4.7,25.4c2.1,12.8,9.8,23.1,18.2,31.4C895.7,556.2,898.1,554.7,900.7,553.5"/>
			<path class="st1" d="M954.7,511.3c0.6-0.7,1.3-1.4,2-2c0.9-3.2,2-6.3,3.3-9.4c4.7-11.2,9.6-22.1,10.9-34.6
				c1.5-14.9-0.5-28.8-6.6-42.1c-6.8-14.7-17.8-20.9-33.3-18.9c-14.4,1.8-27,7.8-37.2,19.1c-7.3,8.1-9,17.6-8.1,28.1
				c0.3,4.2,3,7.9,7,9.3c1.1-1.4,0.3-8.1,0.2-9.2c-0.9-8.9,2.4-16.1,7.9-22.6c9.8-11.7,37.3-21.9,48.9-11.5
				c9.2,8.4,12.1,19.6,13.3,31.8c1.5,15.6-2.8,29.6-9.2,43.3c-3.9,8.3-6.7,16.9-7.5,25.6C948.6,515.4,951.5,513,954.7,511.3"/>
			<path class="st1" d="M916.2,383.3c-2.4-4.7,2.1-8.2,5.6-8.1c3.7,0.1,5.2,3.1,4.8,6.1c-0.4,2.7-2.6,5.6-5.5,5.3
				C919,386.2,917.3,385,916.2,383.3"/>
			<path class="st1" d="M888.2,392c2.6-0.2,4.8,1.8,4.9,4.4c0,0.3,0,0.6,0,0.9c-0.2,2.7-3.9,5.7-7.2,4.9c-1.8-0.7-3.2-2.3-3.7-4.1
				C881.7,394.7,884.8,392.1,888.2,392"/>
			<path class="st1" d="M957.6,386.3c0.1,2.8-3.5,3.8-5.1,4.1c-1.8,0.3-3.4-0.9-3.7-2.7c-0.1-0.3-0.1-0.7,0-1c0.1-1.5,0.9-2.8,2-3.8
				C953.6,381.4,957.4,382.8,957.6,386.3"/>
			<path class="st1" d="M1153.2,561.3c-0.1-3-0.1-6.1,0.1-9.1c0.6-7.9,2.4-18.7,5.9-25c6.8-12.2,14.7-23.8,22.1-35.7
				c6.1-9.8,11.8-19.8,14-31.6c1.5-7.3,0.7-14.8-2.1-21.6c-6.6-16.6-17.6-28.9-32.3-37.9c-22.8-14-41.9-2.1-50.8-0.1
				c-17.5,3.9-27.6,4.5-40.7-9.2c-4.4-4.6-8.9-9-13.6-13.3c-6-5.4-13.3-9.3-20.9-8.7c-10.2,0.9-18.9,6-24.9,15.7
				c-8.6,13.7-14.6,28.4-16.4,44.9c-12.1,27.7,21,76.1,30.5,93.2c4.1,1.9,8.2-15,9.9-13.5c-15.3-19.8-30.4-42-31.2-58.8
				c-1.3-27.3,5.1-45.6,19.1-66c14.3-21,44,13.2,49.3,18.6c7,7.3,15.2,8.4,24.4,7.8c11.3-0.8,22.2-3.6,32.9-7.1
				c7.6-2.5,14.8-2,22.5,0.9c8.8,3.3,15.9,9.2,21.5,15.9c15.8,18.5,20.3,32.2,8.2,55.3c-4.7,8.9-10.6,17.1-15.9,25.8
				c-4.5,7.3-8.5,14.9-12.9,22.1c-6.7,11-7.6,24-6.8,36C1147.8,559.9,1150.5,560.4,1153.2,561.3"/>
			<path class="st1" d="M1220.8,567.3c0.9-0.1,1.8-0.1,2.7-0.1c2.7-1.7,5.5-3.3,8.4-4.6c10.7-5,21.2-9.5,30.3-17.8
				c10.5-9.6,18.1-21.9,22-35.6c4.4-15.6,0.2-27.8-12.5-37.2c-11.9-8.8-25-13.2-39.7-12c-10.6,0.8-17.9,6.7-24,15
				c-2.5,3.4-2.8,8-0.8,11.8c1.7-0.3,5.4-5.7,6.1-6.6c5.1-7.2,12.1-10.1,20.3-11.1c14.8-1.7,41.7,10.1,43.5,25.8
				c1.4,12.6-3.6,22.9-10.5,32.7c-8.9,12.5-21.1,19.8-34.6,25.4c-8.2,3.4-15.8,7.7-22,13.5C1213.6,566.1,1217.3,566.4,1220.8,567.3"
				/>
			<path class="st1" d="M1274.4,446.2c1.2-5.2,6.8-4.6,9.3-2.1c2.1,1.9,2.3,5.1,0.4,7.1c-0.2,0.3-0.5,0.5-0.8,0.7
				c-2,1.7-5.5,2.3-7.5,0C1274.6,450.3,1274.1,448.2,1274.4,446.2"/>
			<path class="st1" d="M1248.1,433c2.1,1.7,2.4,4.8,0.7,6.9c-0.1,0.2-0.3,0.3-0.4,0.4c-1.9,1.8-6.5,1.5-8.4-1.4
				c-0.9-1.8-0.9-3.9-0.1-5.6C1241.6,430.3,1245.5,430.6,1248.1,433"/>
			<path class="st1" d="M1303.2,477.5c-1.7,2.1-5,0.3-6.3-0.6c-1.6-1.1-2-3.2-0.9-4.8c0.1-0.2,0.3-0.4,0.5-0.6c1-1,2.4-1.4,3.9-1.3
				C1303.4,471,1305.3,474.8,1303.2,477.5"/>
		</g>
	</g>
</g>
<path class="st1" d="M1537.5,542.7c-2.1-2.1-4-4.4-5.8-6.8c-4.6-6.2-10.3-15.5-11.7-22.6c-2.9-13.8-4.5-27.9-6.6-41.9
	c-1.8-11.6-4-23-10-33.3c-3.5-6.3-8.9-11.4-15.5-14.5c-15.6-7.7-31.7-9-48.4-5.3c-25.9,5.6-32.4,27.9-37.7,35.6
	c-10.5,15.2-17.6,22.7-36.1,21.7c-6.2-0.4-12.4-0.5-18.6-0.3c-7.9,0.2-15.9,2.5-21.1,8.3c-7,7.8-10.1,17.7-8.4,29.1
	c2.5,16.2,7.4,31.3,16.8,44.7c12.6,18.2,29.6,28.3,47.6,34.2c4.3-1.5,9-1.8,13.5-1c4.4-1.7,9.1-2.3,13.7-1.6c2.1-0.6,4.4-0.9,6.6-1
	c-24.2-3.9-49.6-9.7-61-21.6c-18.6-19.2-25.6-37.3-28.4-62.3c-2.9-25.6,41.2-21.2,48.5-20.9c9.8,0.5,16.7-4.4,23.2-11.4
	c7.9-8.5,14.1-18.2,19.8-28.3c4.1-7.2,9.7-11.8,17.2-15.2c8.6-3.8,17.7-4.3,26.2-3.4c23.6,2.6,35.7,9.5,41.7,35.1
	c2.3,9.9,3.2,20.1,4.8,30.2c1.4,8.5,3.3,17,4.7,25.4c2.1,12.8,9.8,23,18.2,31.3C1532.6,545.4,1534.9,543.9,1537.5,542.7"/>
<path class="st1" d="M1591.5,500.5c0.6-0.7,1.3-1.4,2-2c0.9-3.2,2-6.3,3.3-9.4c4.7-11.2,9.6-22.1,10.9-34.6
	c1.5-14.9-0.5-28.8-6.6-42.1c-6.8-14.7-17.8-20.9-33.3-18.9c-14.4,1.8-27,7.8-37.2,19c-7.3,8.1-9,17.6-8.1,28.1c0.3,4.2,3,7.9,7,9.3
	c1.1-1.4,0.3-8.1,0.2-9.2c-0.9-8.9,2.4-16.1,7.9-22.6c9.8-11.7,37.3-21.9,48.9-11.5c9.2,8.3,12.1,19.6,13.3,31.8
	c1.6,15.6-2.8,29.6-9.2,43.3c-3.9,8.3-6.7,16.9-7.6,25.6C1585.4,504.5,1588.3,502.1,1591.5,500.5"/>
<path class="st1" d="M1553,372.5c-2.4-4.7,2.1-8.2,5.6-8.1c3.7,0.1,5.2,3.1,4.8,6.1c-0.4,2.6-2.6,5.6-5.5,5.3
	C1555.8,375.4,1554,374.2,1553,372.5"/>
<path class="st1" d="M1525,381.2c2.6-0.2,4.8,1.8,4.9,4.3c0,0.3,0,0.6,0,0.9c-0.2,2.7-3.8,5.7-7.2,4.9c-1.8-0.7-3.2-2.3-3.7-4.1
	C1518.5,383.9,1521.6,381.3,1525,381.2"/>
<path class="st1" d="M1594.4,375.5c0.1,2.8-3.4,3.8-5.1,4c-1.8,0.3-3.5-0.9-3.8-2.7c-0.1-0.3-0.1-0.7,0-1c0.1-1.5,0.9-2.8,2-3.7
	C1590.4,370.6,1594.2,372,1594.4,375.5"/>
<path class="st1" d="M1789.9,550.5c-0.1-3-0.1-6.1,0.1-9.1c0.6-7.9,2.4-18.7,5.8-25c6.8-12.2,14.7-23.8,22.1-35.7
	c6.1-9.8,11.8-19.8,14-31.6c1.5-7.3,0.7-14.8-2.1-21.6c-6.6-16.6-17.6-28.9-32.3-37.9c-22.8-14-41.9-2.1-50.8-0.1
	c-17.5,3.9-27.6,4.5-40.7-9.2c-4.4-4.6-8.9-9-13.6-13.3c-6-5.4-13.3-9.4-20.9-8.7c-10.2,0.9-18.9,6-24.9,15.7
	c-8.6,13.7-14.6,28.4-16.4,44.9c-12.1,27.7,21,76.1,30.5,93.2c4.1,1.9,8.2-15,9.9-13.5c-15.3-19.8-30.4-42-31.2-58.8
	c-1.3-27.3,5.1-45.6,19.1-66c14.4-21,44.1,13.1,49.3,18.6c7,7.3,15.2,8.4,24.4,7.8c11.3-0.8,22.2-3.6,32.9-7.1
	c7.6-2.5,14.8-2,22.5,0.9c8.8,3.3,15.9,9.2,21.5,15.9c15.8,18.5,20.3,32.2,8.2,55.3c-4.7,9-10.6,17.1-15.9,25.8
	c-4.5,7.3-8.5,14.8-12.9,22.1c-6.7,11-7.6,24-6.8,36C1784.6,549.1,1787.3,549.6,1789.9,550.5"/>
<path class="st1" d="M1857.6,556.5c0.9-0.1,1.8-0.1,2.7-0.1c2.7-1.7,5.5-3.3,8.4-4.6c10.7-4.9,21.2-9.5,30.2-17.8
	c10.5-9.6,18.2-21.9,22.1-35.6c4.4-15.6,0.2-27.8-12.5-37.2c-11.9-8.8-25-13.2-39.7-12c-10.6,0.8-17.9,6.7-24,15
	c-2.5,3.4-2.8,8-0.8,11.8c1.7-0.3,5.4-5.7,6.1-6.6c5.1-7.2,12.1-10.1,20.4-11.1c14.8-1.7,41.7,10.1,43.5,25.8
	c1.4,12.6-3.6,22.9-10.5,32.7c-8.9,12.5-21,19.8-34.6,25.4c-8.2,3.4-15.8,7.7-22,13.5C1850.5,555.3,1854.1,555.6,1857.6,556.5"/>
<path class="st1" d="M1911.2,435.4c1.2-5.2,6.8-4.6,9.3-2.1c2.1,1.9,2.3,5.1,0.4,7.2c-0.2,0.3-0.5,0.5-0.8,0.7c-2,1.7-5.5,2.3-7.5,0
	C1911.4,439.5,1910.9,437.4,1911.2,435.4"/>
<path class="st1" d="M1884.9,422.2c2.1,1.7,2.4,4.8,0.7,6.9c-0.1,0.2-0.3,0.3-0.4,0.4c-1.9,1.8-6.5,1.5-8.4-1.4
	c-0.9-1.8-0.9-3.9-0.1-5.6C1878.4,419.5,1882.3,419.8,1884.9,422.2"/>
<path class="st1" d="M1939.9,466.7c-1.7,2.1-5,0.3-6.3-0.6c-1.6-1.1-2-3.2-0.9-4.8c0.1-0.2,0.3-0.4,0.5-0.6c1-0.9,2.7-1.6,3.8-1.3
	C1940.2,460.2,1942.1,464,1939.9,466.7"/>
<polyline class="st2" points="93.2,616.2 1940.8,616.2 1940.8,172.3 "/>
</svg>
