<svg xmlns="http://www.w3.org/2000/svg" viewBox="0 0 2010 498.86"><defs><style>.a,.b{fill:#f05424;}.a{stroke:#f05424;stroke-miterlimit:10;stroke-width:2px;}.c{fill:none;}</style></defs><path class="a" d="M167.17,220.69c7.79-7.71,12.15-14.87,15.11-25.18,1.17-4.22-.54-11.25-1.6-11.79-1.22-.74-6,20.25-20.14,33.86-4.58,4.39-22.47,8.31-34.9,1.29-2.71-1.88-20.28-9.33-25.67-37.55-2.16-11.3-.85-23.16,1.2-41,3.14-27.18,47.29-71.74,58.78-155.73,7.3-53.35,5.52-49.07,4.29-43.08-1.47,7.19-10.4,63.09-22.22,94.7-10.29,27.52-35,69.1-42.07,85.89C86.7,153.74,90.78,173,93.55,186c5.29,24.73,12.22,30.89,31,41.55,18.07,8.37,33.72,2,42.61-6.81"/><path class="b" d="M335.28,223.78c9-3.38,32.65-3.74,45.83-29.63,8.48-16.7,12-34.14,9.08-52.94a38.08,38.08,0,0,0-9.55-20.67c-8.36-9.35-18.72-15-29.5-20.28-13-6.38-26.26-12.18-38.87-19.27-6.5-3.6-13.89-12.27-18.55-19-12.11-17.48-12.6-34.47-25.24-50.14-1.7-2.06-46.91-42.6-50.05-41.48,6.85,6.08,48.32,53.42,52.6,62.81,6.31,14,14.13,43.76,36.37,54.87,7.82,3.89,15.49,8.29,23.4,12.3,9.29,4.71,19,8.64,28,13.94,23.3,13.83,26.39,28.65,22,54.51-1.54,9.3-4.73,18.8-11,26.86-5.48,7.09-11.62,11.69-19.84,13.89-11.55,3.11-22.84,6.85-33.46,12.78-8.7,4.83-15.43,10.71-17.88,21.28-1.86,7.95-10.5,55.91-34.63,45.4-23.44-10.16-39-23-52.25-48.27-14.32-27.23,2-94.91,3.58-121.68,2.05-35.12-14.77-159-17.41-174.4-2.49,2.09,8.9,152,8.27,167.34-1.66,40-28.65,104,8.31,153.24C224.77,279,238,288.68,253.06,296a32.5,32.5,0,0,0,30.79-.38c7.21-3.81,11.72-11.68,14.32-20,2-6.61,3.75-13.24,5.22-19.88,4.51-19.93,14-25.33,31.89-32"/><path class="b" d="M411.37,105.22c13.46-8.46,22.13-20.5,27.13-35.48,5.3-16.12,1.73-29.17-11.22-39.77-11.73-9.48-25-14.68-40-16.42-12.75-1.43-24.47,1.43-36.61,4-14.88,3.16-29.57,3.61-42.41-6.79-1.84-1.43-8.23-5.28-10.07-6.71-4.28,1.12-4,2.89-8.39,3.2h-.1c2.65,1.84,5.3,3.77,7.95,5.71,3.16,2.45,6.32,4.89,9.69,7.14,15.5,10.3,32.32,10,49.25,5.71,15-3.88,29.77-5.41,44.76-.31,11.73,3.88,22.23,9.59,28.35,21.21,7.75,14.58-8.57,41.81-22.23,49.76-7.65,4.49-15.5,6.42-24.07,3.47-1.12-.41-7.54-2.65-9.17-1.84,1.12,8,7.65,9.59,7.65,9.59,10.09,3.26,19.88,3.57,29.46-2.45"/><path class="b" d="M411.37,105.63c13.57-8.36,22.44-20.6,27.43-35.69,5.41-16.32,1.84-29.47-11.32-40.18C415.66,20.18,402.2,15,387,13.25c-12.84-1.43-24.77,1.42-37,4C334.9,20.49,320.11,19.47,307.06,9c-1.83-1.53-14.67-10.29-16.61-11.72A63.66,63.66,0,0,1,277.4-.41l10.9,7.33c2.75,1.84,5.4,3.67,8.06,5.71,3.26,2.45,6.42,4.9,9.78,7.14,15.71,10.3,32.74,10,49.87,5.71,15.09-3.87,30.08-5.4,45.27-.3,11.83,4,22.43,9.68,28.65,21.41,7.85,14.68-8.67,42.11-22.53,50.17-7.75,4.48-15.71,6.42-24.37,3.46-1.12-.4-7.65-2.65-9.28-1.83,1.12,8,7.75,9.68,7.75,9.68,10.3,3.37,20.19,3.68,29.87-2.44"/><path class="b" d="M456.65,90a7.78,7.78,0,0,1-1.94-5.51c.31-3,3.47-4.59,6-4.49,2.85.11,5.3,2.25,4.58,6-.71,3.57-4.79,7.44-8.66,4"/><path class="b" d="M456.44,90.33a8.21,8.21,0,0,1-2.24-6c.41-3.16,3.77-4.9,6.53-4.8,3.16.11,5.71,2.45,5,6.53-.71,3.87-5.1,8-9.28,4.28"/><path class="b" d="M441.15,118.48c-.82,3.46-3.78,6-6.83,4.69a5.8,5.8,0,0,1-3-4.49c0-3.57,3.57-6.53,6-6.22,2.15.31,4.59,2.34,3.78,6"/><path class="b" d="M441.56,118.58c-.82,3.67-4.08,6.42-7.35,5.1a6.37,6.37,0,0,1-3.26-4.9c0-3.77,3.88-7.14,6.53-6.73a5.08,5.08,0,0,1,4.08,6.53"/><path class="b" d="M462.76,45.37c3.06.91,3.47,4.89,1.43,7.54a4.71,4.71,0,0,1-3.67,1.22c-2.45-.3-3.06-2.85-2.45-4.48s2.25-4.9,4.69-4.28"/><path class="b" d="M462.87,45c3.46.92,4,5.3,1.73,8.15a5.68,5.68,0,0,1-4.18,1.43c-2.75-.2-3.37-3.16-2.75-4.89s2.44-5.41,5.2-4.69"/><path class="b" d="M658.44-48a31.64,31.64,0,0,1-8.36,1.33c-1.33,12.13-.82,25.39,5.61,36.71,4.18,7.44,8,15.29,12.33,22.84,5.1,8.87,10.81,17.43,15.3,26.61,11.52,23.86,6.42,37.42-10.2,55.68-6,6.52-13.36,12.33-22.43,15.29-8,2.55-15.19,2.75-22.84,0-10.81-3.87-21.72-7.24-33.14-8.36-9.38-.92-17.74-.1-25.08,7-5.51,5.31-36.81,38.85-50.68,17-13.56-21.21-19.38-40.07-17.13-67.6,1.43-17,17.33-38.95,33.65-58.43a30.38,30.38,0,0,1-5.71,3.67,28.1,28.1,0,0,1-11.63,8.16,27.32,27.32,0,0,1-11,8.46c-10.2,16.93-16.93,36.2-15.29,59,1.22,16.83,6.83,31.82,15.09,46.09,5.81,10,14.48,15.5,24.77,16.83,7.65.91,15.3-2.86,21.52-8.06,4.89-4.08,9.69-8.46,14.27-13,13.77-13.46,24-12.44,41.61-7.85,9,2.34,28,15.19,51.59,1.83,15.3-8.66,26.92-20.59,34.16-37.21a38.16,38.16,0,0,0,2.86-21.82c-1.84-12.14-7.24-22.44-13.16-32.63-7.14-12.34-14.78-24.37-21.21-37-3.36-6.42-4.79-17.54-5.1-25.49a68.64,68.64,0,0,1,.21-9.18"/><path class="b" d="M658.64-48.75a22.1,22.1,0,0,1-8.15,1.22c-1.33,12.24-.82,25.5,5.6,36.92,4.29,7.54,8.16,15.49,12.44,23,5.1,9,10.81,17.54,15.3,26.82,11.52,24.06,6.52,37.73-10.2,56.08-6,6.63-13.46,12.44-22.53,15.4-8,2.55-15.3,2.75-23,0-10.8-4-21.71-7.35-33.24-8.47-9.38-1-17.84-.1-25.18,7-5.51,5.4-37,39.05-50.88,17.13-13.57-21.31-19.48-40.28-17.24-68,1.43-17,17.54-39.06,33.86-58.74-1.84,1.53,3.67-16.58,1.63-15.56-3.27,3.78-4.39,7.51-8.77,9.14-3.06,3.88-17.54,20.7-21.52,26.82-10.29,17-17,36.4-15.39,59.34,1.22,16.93,6.93,32.12,15.19,46.4,5.81,10.09,14.58,15.6,24.88,16.92,7.75.92,15.3-2.85,21.62-8.05,4.89-4.18,9.68-8.57,14.27-13,13.77-13.46,24.07-12.44,41.81-7.86,9.07,2.35,28.14,15.3,51.8,1.84,15.29-8.67,27-20.7,34.26-37.42a38.4,38.4,0,0,0,2.85-21.92c-1.83-12.24-7.34-22.54-13.25-32.84C677.71,11,670.06-1,663.54-13.78c-3.27-6.52-4.8-17.64-5.1-25.69a71.89,71.89,0,0,1,.2-9.28"/><path class="b" d="M728.08-51.91a29.72,29.72,0,0,1-10.81.71c6.12,6.12,13.56,10.71,21.72,14.48,13.46,6.12,25.6,13.87,34.06,26.92,6.63,10.1,11.32,20.7,9.48,33.34-2.34,15.81-30,26.72-44.76,24.48-8.26-1.23-15.3-4.49-20.19-11.93-.61-.92-4.18-6.53-5.92-6.94a11.23,11.23,0,0,0,.41,11.93c5.81,8.67,13,14.79,23.66,16,14.89,1.63,28.24-2.24,40.48-10.7,13-9.08,17.74-21.32,13.87-37.22a76.12,76.12,0,0,0-21-36.71c-8.77-8.87-19.27-13.77-29.87-19.17a75.52,75.52,0,0,1-8.37-5,25.61,25.61,0,0,1-2.75-.2"/><path class="b" d="M727.88-52.32A35.7,35.7,0,0,1,717-51.5c6.12,6.12,13.66,10.81,21.92,14.58,13.56,6.22,25.8,14,34.36,27.12C780,.4,784.78,11.1,782.84,23.85c-2.45,16-30.29,26.92-45.28,24.68-8.36-1.33-15.49-4.59-20.39-12.14-.61-1-4.18-6.63-5.91-7a11.17,11.17,0,0,0,.4,12c5.92,8.77,13.26,15,24,16.21,15,1.73,28.55-2.24,40.89-10.81,13.15-9.17,17.94-21.41,14-37.52a78.41,78.41,0,0,0-21.32-37c-8.87-9-19.47-14-30.18-19.38a70.93,70.93,0,0,1-8.36-5,25.45,25.45,0,0,1-2.75-.21"/><path class="b" d="M778.76,73a7,7,0,0,1,1.63-5.41c1.94-2,5.2-1.32,7,.31a4.75,4.75,0,0,1,.71.71,4.69,4.69,0,0,1-.61,6.63c-2.55,2.24-7.75,2.65-8.77-2.24"/><path class="b" d="M778.35,73.1a8.08,8.08,0,0,1,1.73-5.81c2.15-2.25,5.61-1.43,7.65.3a3.2,3.2,0,0,1,.82.82,5,5,0,0,1-.72,7.14c-2.65,2.44-8.36,3-9.48-2.45"/><path class="b" d="M750.82,85.23c-2.55,2.15-6.22,2.25-7.65-.51a6,6,0,0,1,.21-5.3c1.93-2.65,6.22-2.75,8-1,.1.21.31.31.41.51a4.55,4.55,0,0,1-.92,6.32"/><path class="b" d="M751,85.54c-2.65,2.35-6.73,2.55-8.46-.61a7.21,7.21,0,0,1,.31-5.81c2.14-2.86,6.83-3.06,8.66-1.13.11.21.31.31.41.51a5,5,0,0,1-.92,7"/><path class="b" d="M808.33,42.61c1.83,2.45,0,5.92-3,6.63a4.62,4.62,0,0,1-3.57-1.33,2.06,2.06,0,0,1-.4-.51,3.15,3.15,0,0,1,1-4.38c1.32-.92,4.38-2.45,5.91-.41"/><path class="b" d="M808.64,42.31c2.14,2.75.1,6.52-3.37,7.44a5.07,5.07,0,0,1-3.87-1.53c-.11-.2-.31-.41-.41-.61a3.61,3.61,0,0,1,1.12-4.9c1.53-.91,4.89-2.65,6.53-.4"/><path class="b" d="M1055.09-51.2a26.11,26.11,0,0,1-7-4.59c-8.56,8.47-16.41,19-18.56,32-1.42,8.57-3.36,17.23-4.79,25.9-1.63,10.3-2.55,20.7-4.89,30.8-6.12,26.1-18.46,33.13-42.52,35.79-8.67.91-17.95.4-26.72-3.47-7.64-3.47-13.36-8.16-17.54-15.5-5.81-10.3-12.13-20.19-20.19-28.86-6.62-7.13-13.66-12.13-23.65-11.62-7.55.41-52.41,4.79-49.35-21.31,2.85-25.49,10.09-43.95,29-63.53,11.62-12,37.52-17.94,62.2-21.92a25,25,0,0,1-6.73-1,27.26,27.26,0,0,1-14-1.63,27.49,27.49,0,0,1-13.77-1C878.18-95,860.84-84.85,848-66.29c-9.58,13.67-14.58,29.06-17.13,45.58C829.13-9.08,832.29,1,839.43,9c5.3,5.92,13.46,8.26,21.51,8.47q9.49.3,19-.31c18.86-.92,26.1,6.73,36.81,22.23,5.4,7.85,12,30.59,38.44,36.3,17,3.77,33.45,2.45,49.35-5.4a35.32,35.32,0,0,0,15.81-14.79c6.12-10.5,8.36-22.13,10.19-33.95,2.15-14.28,3.78-28.66,6.73-42.73,1.43-7.24,7.24-16.72,11.93-23a64.67,64.67,0,0,1,5.92-6.94"/><path class="b" d="M1110.15-8.17a28.49,28.49,0,0,1-8.56-7c.81,8.87,3.67,17.64,7.64,26.1,6.53,14,10.91,28.25,9.38,44.15-1.22,12.44-4.18,23.86-13.56,32.43-11.83,10.6-39.87.2-49.86-11.73-5.61-6.63-9-14-8.06-23,.11-1.12.92-8-.2-9.38a10.81,10.81,0,0,0-7.14,9.48c-.91,10.71.82,20.39,8.26,28.65C1058.45,93,1071.3,99.1,1086,100.94c15.81,2,27-4.29,34-19.27,6.22-13.57,8.26-27.74,6.73-42.93-1.33-12.75-6.32-23.86-11.12-35.28a83.24,83.24,0,0,1-3.36-9.59,18.71,18.71,0,0,1-2-2"/><path class="b" d="M1070.89,122.35a7.54,7.54,0,0,1,5-3.36c3-.31,5.2,2.65,5.61,5.4.41,3.06-1.12,6.12-4.9,6.22-3.57.1-8.15-3.47-5.71-8.26"/><path class="b" d="M1042.34,113.48c-3.46-.1-6.63-2.75-6.12-6.22a6.4,6.4,0,0,1,3.78-4.18c3.36-.82,7.13,2.24,7.34,5V109a4.65,4.65,0,0,1-5,4.49"/><path class="b" d="M1113.11,119.29c-.21,3.57-4.08,5-6.94,3.47a5.87,5.87,0,0,1-2-3.88,1.77,1.77,0,0,1,0-1,3.26,3.26,0,0,1,3.78-2.75c1.63.31,5.3,1.33,5.2,4.18"/><path class="b" d="M1312.55-59.15a26,26,0,0,1-8.26,1.43c-.81,12.23.11,25.49,6.94,36.71,4.48,7.34,8.56,15.09,13.15,22.53,5.41,8.87,11.42,17.23,16.21,26.31,12.34,23.55,7.75,37.52-8.36,56.38-5.71,6.84-13,12.85-21.92,16.22-7.85,2.95-15.19,3.46-22.94.92-10.91-3.57-22-6.43-33.55-7.24-9.38-.62-17.74.51-24.88,8-5.4,5.5-35.69,40.38-50.27,19-14.27-20.8-20.8-39.46-19.47-67.29C1160,36.6,1175.41,14,1191-6.23c-1.73,1.53-5.91-15.7-10.1-13.77-9.68,17.44-43.43,66.79-31.09,95,1.83,16.82,8,31.81,16.72,45.78,6.12,9.89,15,15.09,25.39,16,7.75.61,15.19-3.37,21.31-8.87,4.79-4.39,9.38-8.87,13.87-13.56,13.35-14,23.65-13.36,41.5-9.38,9.07,2,28.55,14.17,51.8-.11,15-9.17,26.2-21.72,32.93-38.64a37.78,37.78,0,0,0,2.14-22c-2.24-12-8-22.22-14.27-32.22-7.55-12.13-15.6-24-22.54-36.4-3.57-6.42-5.4-17.44-6-25.49a92.68,92.68,0,0,1-.11-9.28"/><path class="b" d="M1381.48-65.27a30.71,30.71,0,0,1-11,.82c6.32,5.91,14.07,10.3,22.43,13.76,13.77,5.71,26.21,13.16,35.28,25.9,7,10,12.14,20.5,10.71,33.35-1.83,16-29.26,28-44.35,26.3-8.37-1-15.5-4-20.7-11.32-.72-.91-4.49-6.42-6.22-6.73a11.4,11.4,0,0,0,.81,12c6.22,8.46,13.67,14.48,24.47,15.29,15,1.23,28.35-3.26,40.48-12.23,12.95-9.59,17.24-22,12.75-37.94a78.18,78.18,0,0,0-22.43-36.3c-9.28-8.46-20-13.05-30.9-18.15a67.76,67.76,0,0,1-8.56-4.69,25.46,25.46,0,0,1-2.76-.1"/><path class="b" d="M1436.14,58.21a7.83,7.83,0,0,1,1.42-5.81c2-2.34,5.61-1.73,7.65,0a3,3,0,0,1,.82.71,5.06,5.06,0,0,1-.41,7.24c-2.55,2.55-8.26,3.17-9.48-2.14"/><path class="b" d="M1409.32,71.67c-2.65,2.45-6.63,2.76-8.36-.3a6.58,6.58,0,0,1,.1-5.71c1.94-3,6.63-3.27,8.57-1.43.1.1.3.2.4.41a5,5,0,0,1-.71,7"/><path class="b" d="M1465.5,26.3c2.15,2.75.21,6.63-2.85,7.44a5,5,0,0,1-4-1.32,2.79,2.79,0,0,1-.51-.62,3.48,3.48,0,0,1,.92-4.89c1.33-.92,4.69-2.75,6.42-.61"/><path class="b" d="M1704.41-40.18a35,35,0,0,1-6.93-4.29c-8.57,8.47-16.42,18.87-18.56,31.92-1.43,8.56-3.37,17.23-4.79,25.9-1.63,10.3-2.55,20.7-4.9,30.79-6.12,26.11-18.45,33.14-42.52,35.79-8.66.92-17.94.41-26.71-3.46-7.65-3.47-13.36-8.16-17.54-15.5-5.81-10.3-12.13-20.19-20.19-28.86-6.63-7.14-13.66-12.13-23.66-11.62-7.44.3-52.41,4.79-49.45-21.32,2.86-25.49,10-43.94,29-63.52,11.62-12.13,37.52-18.05,62.2-22a29.21,29.21,0,0,1-6.73-1,27.19,27.19,0,0,1-14-1.63,27.39,27.39,0,0,1-13.77-1c-18.35,6-35.68,16.32-48.53,34.88-9.59,13.66-14.58,29.06-17.13,45.58-1.74,11.62,1.42,21.71,8.56,29.67,5.3,5.91,13.46,8.26,21.52,8.46q9.48.3,19-.3c18.87-1,26.11,6.62,36.81,22.12,5.41,7.85,12,30.59,38.44,36.3,17,3.77,33.45,2.45,49.36-5.4a35.19,35.19,0,0,0,15.8-14.79c6.12-10.5,8.36-22.12,10.2-33.95,2.14-14.28,3.77-28.65,6.73-42.73,1.42-7.24,7.24-16.72,11.93-23a63.35,63.35,0,0,1,5.91-6.93"/><path class="b" d="M1755.34-23c-3.27-1.63-2.09,21.73-4.53,18.87A81.45,81.45,0,0,0,1758.56,22c6.52,14,11,28.24,9.38,44.15-1.23,12.44-4.18,24-13.56,32.42-11.83,10.61-39.87.21-49.87-11.72-5.6-6.63-9-14-8-23.05.1-1.12.92-8-.21-9.38a10.81,10.81,0,0,0-7.13,9.48c-.92,10.71.81,20.4,8.26,28.66,10.4,11.42,23.24,17.53,37.93,19.37,15.8,2,27-4.28,34-19.27,6.22-13.56,8.26-27.74,6.73-42.93-1.32-12.75-6.32-23.86-11.11-35.28-1.33-3.16-6.11-34.17-7-37.43-.72-.61,2.23,26.52,1.61,25.81"/><path class="b" d="M1720.22,133.36a7.33,7.33,0,0,1,5-3.36c3-.31,5.2,2.75,5.61,5.4.41,3.06-1.12,6.12-4.89,6.22-3.57.1-8.16-3.47-5.71-8.26"/><path class="b" d="M1691.67,124.49c-3.47-.1-6.63-2.75-6.12-6.12a6.43,6.43,0,0,1,3.77-4.18c3.47-.81,7.14,2.25,7.34,5v.92a4.62,4.62,0,0,1-5,4.38"/><path class="b" d="M1762.43,130.3c-.2,3.57-4.08,5-7,3.47a5.37,5.37,0,0,1-2-3.77,1.62,1.62,0,0,1,0-1,3.35,3.35,0,0,1,3.87-2.76c1.73.21,5.3,1.23,5.2,4.08"/><path class="b" d="M1961.77-48.14a25.18,25.18,0,0,1-8.36,1.43c-.81,12.24.11,25.49,6.94,36.71,4.48,7.44,8.56,15.09,13.15,22.53,5.41,8.87,11.42,17.13,16.21,26.31,12.34,23.55,7.75,37.52-8.36,56.39-5.71,6.83-12.95,12.84-21.92,16.21-7.85,3-15.19,3.47-22.94.92-10.91-3.57-22-6.43-33.55-7.24-9.38-.61-17.74.51-24.88,7.95-5.3,5.61-35.59,40.38-50.27,19-14.27-20.8-20.8-39.46-19.47-67.3.81-17.13,16.21-39.77,31.81-60-1.73,1.53-5.92-15.7-10.1-13.76-9.68,17.43-43.43,66.79-31.1,95,1.84,16.82,8,31.81,16.73,45.78,6.11,9.89,15,15.09,25.39,16,7.75.72,15.19-3.36,21.31-8.87,4.79-4.38,9.38-8.87,13.86-13.56,13.36-14,23.66-13.36,41.51-9.38,9.07,2,28.55,14.17,51.79-.1,15-9.18,26.21-21.72,32.94-38.65a37.83,37.83,0,0,0,2.14-22c-2.24-12-8-22.23-14.27-32.23-7.55-12.13-15.61-24-22.54-36.4-3.47-6.42-5.3-17.43-5.91-25.49a92.68,92.68,0,0,1-.11-9.28"/><polyline class="c" points="2115.64 337.5 2115.64 -115.13 231.71 -115.13"/><path class="b" d="M101.56,237.37a7.53,7.53,0,0,1,6-.74c2.77,1.06,3.43,4.71,2.55,7.35-1,2.91-3.76,5-7.17,3.34-3.23-1.53-5.71-6.79-1.36-9.95"/><path class="b" d="M80.1,216.54c-3-1.66-4.66-5.45-2.64-8.31a6.4,6.4,0,0,1,5.26-2c3.37.79,5.35,5.23,4.28,7.77l-.41.82a4.65,4.65,0,0,1-6.49,1.74"/><path class="b" d="M140.59,253.73c-1.79,3.09-5.9,2.61-7.75,0a5.83,5.83,0,0,1-.07-4.38,1.8,1.8,0,0,1,.46-.91,3.26,3.26,0,0,1,4.61-.75c1.32,1,4.13,3.58,2.75,6.08"/><path class="b" d="M20-54.26A30.13,30.13,0,0,1,9-53.44c6.33,5.91,14.08,10.3,22.44,13.77C45.34-34,57.68-26.52,66.76-13.78c7,10,12.13,20.5,10.7,33.35-1.83,16-29.26,28-44.35,26.31-8.46-1-15.6-4-20.8-11.32-.72-.92-4.49-6.43-6.22-6.73a11.38,11.38,0,0,0,.81,12c6.22,8.46,13.67,14.48,24.48,15.29,15,1.23,28.34-3.26,40.48-12.23,13-9.59,17.23-22,12.74-37.93a78.36,78.36,0,0,0-22.53-36.3c-9.18-8.47-19.89-13.16-30.8-18.15a71.14,71.14,0,0,1-8.56-4.69A23.16,23.16,0,0,1,20-54.26"/><path class="b" d="M74.61,69.23A8.17,8.17,0,0,1,76,63.31c2-2.34,5.6-1.73,7.64,0a2.71,2.71,0,0,1,.82.72,5.18,5.18,0,0,1-.41,7.34c-2.55,2.55-8.26,3.16-9.48-2.14"/><path class="b" d="M47.79,82.69c-2.65,2.44-6.63,2.75-8.36-.31a6.58,6.58,0,0,1,.1-5.71c1.94-3,6.63-3.26,8.57-1.43a1.76,1.76,0,0,1,.41.41,5,5,0,0,1-.72,7"/><path class="b" d="M103.87,37.31c2.25,2.75.31,6.63-3,7.44A4.88,4.88,0,0,1,97,43.43a3,3,0,0,1-.51-.61,3.49,3.49,0,0,1,.92-4.9c1.32-.92,4.69-2.75,6.42-.61"/><polyline class="c" points="104.79 337.5 104.79 -115.13 -1779.14 -115.13"/></svg>