<svg id="Layer_1" data-name="Layer 1" xmlns="http://www.w3.org/2000/svg" viewBox="0 0 2010 498.86"><defs><style>.cls-1{fill:#f05424;}.cls-2{fill:none;}</style></defs><path class="cls-1" d="M37.92,311a61.21,61.21,0,0,0,14.74-29.39c.93-4.75-1.65-12.38-2.88-12.89-1.45-.62-4.85,23-19.29,39.29-4.74,5.26-11.24,7.94-19.7,6.09A58.86,58.86,0,0,1-4.06,308c-7.32-4.13-26.82-21.25-21.87-9.9,3.61,8.25,16,15.47,23.93,19.39a64.56,64.56,0,0,0,6.91,3.09c12.89,4.44,23.93.93,33-9.59"/><path class="cls-1" d="M38.23,311.17c8-9.39,12.27-17.85,14.64-29.71.93-4.84-1.65-12.58-2.89-13.09-1.44-.73-4.84,23.3-19.49,39.91-4.74,5.36-11.35,8-19.91,6.19a56,56,0,0,1-14.95-6.19c-7.32-4.23-27-21.56-22.07-10.11,3.61,8.36,16.19,15.78,24.24,19.7a74.82,74.82,0,0,0,7,3.1c13.1,4.53,24.24.92,33.42-9.8"/><path class="cls-1" d="M191.17,230.62c8.87-4,32.6-6,44-32.9,7.43-17.33,9.7-35.17,5.57-53.84a39.21,39.21,0,0,0-11-20.11c-9-8.87-19.91-13.82-31.05-18.46-13.4-5.47-27.12-10.42-40.32-16.71-6.71-3.2-14.75-11.55-19.91-17.94C125.17,54,123.41,36.83,109.7,22c-1.76-2-50-39.61-53-38.16C64.11-10.51,109,34.35,114,43.53c7.32,13.72,17.12,43,40.22,52.81,8.15,3.4,16.19,7.32,24.34,10.83,9.7,4,19.7,7.32,29.09,12.06,24.23,12.28,28.36,27,25.68,53.32-.93,9.49-3.51,19.19-9.28,27.75-5,7.42-10.94,12.48-19,15.26-11.45,4-22.49,8.46-32.8,15.16-8.35,5.47-14.75,11.76-16.5,22.59-1.34,8-6.91,56.93-31.77,48C99.69,292.5,83.3,280.74,68.24,256.2c-16.3-26.51-4.44-95.61-4.64-122.63C63.29,98.09,38-25.26,34.31-40.63,31.83-38.46,53.39,111.5,53.8,126.76c1,40.33-21.66,106.54,18.77,153.57,11.45,13.2,25.37,22,40.94,28.36a32.68,32.68,0,0,0,30.94-2.47c6.91-4.33,11-12.48,13-21,1.65-6.71,2.89-13.51,3.92-20.32,3.09-20.32,12.27-26.3,29.8-34.24"/><path class="cls-1" d="M191.38,230.82c8.87-4,32.7-6,44.25-33,7.42-17.43,9.79-35.27,5.57-54a38.49,38.49,0,0,0-11-20.22c-9.08-8.87-19.91-13.82-31.15-18.46-13.51-5.57-27.33-10.52-40.53-16.81-6.81-3.2-14.85-11.45-20-17.94-13.4-16.81-15.06-33.94-28.88-48.89-1.85-2-50.22-39.81-53.32-38.47,7.33,5.67,52.4,50.64,57.35,59.82,7.32,13.72,17.22,43.21,40.43,52.91,8.14,3.4,16.19,7.32,24.44,10.83,9.69,4.12,19.8,7.42,29.19,12.17,24.44,12.37,28.57,27.12,25.88,53.52-.92,9.49-3.5,19.29-9.28,27.85-5.05,7.53-10.93,12.58-19.08,15.37-11.45,3.92-22.59,8.45-32.9,15.16-8.46,5.46-14.85,11.86-16.6,22.69-1.34,8.15-6.81,57.14-31.87,48.16-24.34-8.66-40.95-20.52-56-45.17-16.29-26.51-4.43-95.92-4.64-123C62.87,97.68,37.5-26.19,33.79-41.56c-2.37,2.27,19.29,152.75,19.7,168.32,1,40.43-21.87,106.85,18.77,154.09,11.34,13.2,25.37,22.07,41.05,28.46a32.88,32.88,0,0,0,31-2.47c7-4.34,11-12.59,13.1-21.15,1.55-6.8,2.89-13.61,3.92-20.42,3.2-20.42,12.37-26.5,30-34.45"/><path class="cls-1" d="M261.82,99.12c13.62-8.56,22.38-20.73,27.44-35.89,5.36-16.3,1.75-29.5-11.35-40.22C266.05,13.42,252.64,8.16,237.48,6.4c-12.89-1.44-24.75,1.45-37,4-15.06,3.2-29.91,2.17-42.91-8.35L152-2.26A71.47,71.47,0,0,1,138.89,0h-.11c2.68,1.85,5.37,3.81,8.05,5.77,3.19,2.48,6.39,5,9.79,7.22,15.68,10.42,32.7,10.11,49.82,5.78,15.16-3.92,30.11-5.47,45.28-.31,11.86,3.92,22.48,9.69,28.67,21.45,7.84,14.75-8.67,42.29-22.49,50.33-7.73,4.54-15.67,6.5-24.34,3.51-1.13-.41-7.63-2.68-9.28-1.86,1.14,8,7.74,9.7,7.74,9.7,10.21,3.3,20.11,3.61,29.8-2.48"/><path class="cls-1" d="M261.82,99.53c13.72-8.45,22.69-20.83,27.75-36.09,5.46-16.51,1.85-29.81-11.45-40.64-12-9.69-25.58-14.95-41-16.71-13-1.44-25.06,1.45-37.43,4-15.27,3.3-30.22,2.26-43.42-8.36-1.86-1.55-3.72-3-5.68-4.43A65,65,0,0,1,137.44-.3h-.1c2.78,1.85,5.46,3.71,8.15,5.77,3.3,2.48,6.49,5,9.9,7.22,15.88,10.42,33.1,10.11,50.43,5.78,15.26-3.92,30.42-5.47,45.79-.31,12,4,22.69,9.8,29,21.66,7.94,14.85-8.76,42.59-22.79,50.74-7.84,4.54-15.88,6.5-24.65,3.51-1.13-.42-7.73-2.68-9.38-1.86,1.13,8.15,7.83,9.8,7.83,9.8,10.42,3.4,20.42,3.71,30.22-2.48"/><path class="cls-1" d="M307.61,83.75a7.81,7.81,0,0,1-1.95-5.57c.3-3,3.5-4.64,6.08-4.53,2.89.1,5.36,2.27,4.64,6.08-.72,3.61-4.85,7.53-8.77,4"/><path class="cls-1" d="M307.41,84.06A8.3,8.3,0,0,1,305.14,78c.41-3.2,3.82-5,6.6-4.85,3.2.1,5.78,2.48,5.05,6.6-.72,3.92-5.15,8-9.38,4.33"/><path class="cls-1" d="M291.94,112.53c-.83,3.51-3.82,6.08-6.91,4.74a5.87,5.87,0,0,1-3-4.54c0-3.6,3.61-6.6,6.08-6.29,2.17.31,4.64,2.38,3.82,6.09"/><path class="cls-1" d="M292.35,112.63c-.82,3.71-4.12,6.5-7.43,5.16a6.46,6.46,0,0,1-3.3-5c0-3.82,3.92-7.22,6.61-6.81a5.12,5.12,0,0,1,4.12,6.6"/><path class="cls-1" d="M313.8,38.58c3.1.93,3.51,5,1.45,7.63a4.84,4.84,0,0,1-3.72,1.24c-2.47-.31-3.09-2.89-2.47-4.54s2.27-4.95,4.74-4.33"/><path class="cls-1" d="M313.91,38.17c3.5.93,4,5.36,1.75,8.25a5.72,5.72,0,0,1-4.23,1.44c-2.78-.2-3.4-3.19-2.78-5s2.47-5.46,5.26-4.74"/><path class="cls-1" d="M511.72-55.89a32.33,32.33,0,0,1-8.46,1.34c-1.34,12.27-.82,25.68,5.68,37.13,4.22,7.53,8.14,15.47,12.47,23.1,5.16,9,10.94,17.64,15.47,26.92,11.66,24.13,6.5,37.85-10.31,56.31-6.08,6.6-13.51,12.48-22.69,15.47-8,2.58-15.37,2.79-23.1,0-10.93-3.92-22-7.32-33.52-8.46-9.49-.92-17.95-.1-25.37,7.12-5.57,5.36-37.23,39.29-51.26,17.22C356.91,98.81,351,79.73,353.3,51.88c1.45-17.22,17.54-39.39,34-59.09a30.46,30.46,0,0,1-5.78,3.71,28.44,28.44,0,0,1-11.75,8.25,27.72,27.72,0,0,1-11.14,8.56C348.35,30.43,341.55,49.93,343.2,73c1.23,17,6.91,32.18,15.26,46.61,5.88,10.11,14.65,15.68,25.06,17,7.74.93,15.47-2.89,21.76-8.15,5-4.12,9.8-8.56,14.44-13.09,13.93-13.62,24.24-12.59,42.08-8,9.08,2.38,28.36,15.37,52.19,1.86,15.47-8.77,27.23-20.83,34.55-37.64a38.67,38.67,0,0,0,2.89-22.07c-1.86-12.28-7.33-22.69-13.31-33C530.9,4.13,523.17-8,516.67-20.83c-3.4-6.49-4.85-17.73-5.16-25.78a70.15,70.15,0,0,1,.21-9.28"/><path class="cls-1" d="M511.93-56.61a22.67,22.67,0,0,1-8.25,1.23C502.33-43,502.85-29.59,509.35-18c4.33,7.63,8.25,15.68,12.58,23.31,5.16,9.07,10.93,17.74,15.47,27.12,11.65,24.34,6.6,38.16-10.31,56.73-6.09,6.7-13.62,12.58-22.8,15.57-8,2.58-15.47,2.78-23.2,0-10.93-4-22-7.43-33.62-8.56-9.49-1-18.05-.1-25.48,7.12-5.57,5.46-37.44,39.5-51.46,17.32C356.81,99,350.83,79.83,353.1,51.78c1.44-17.22,17.74-39.5,34.24-59.4a30.58,30.58,0,0,1-5.88,3.81c-3.3,3.82,3.09-12-1.34-10.31C377-10.2,362.38,6.81,358.36,13c-10.42,17.23-17.23,36.82-15.58,60,1.24,17.12,7,32.49,15.37,46.92,5.88,10.21,14.75,15.78,25.17,17.12,7.83.93,15.47-2.88,21.86-8.14,4.95-4.23,9.8-8.67,14.44-13.2,13.92-13.62,24.34-12.59,42.29-8,9.17,2.38,28.46,15.47,52.39,1.86,15.47-8.77,27.33-20.94,34.65-37.85a38.84,38.84,0,0,0,2.89-22.17c-1.86-12.38-7.43-22.8-13.41-33.21-7.22-12.59-14.95-24.76-21.55-37.65-3.3-6.6-4.85-17.84-5.16-26a71.66,71.66,0,0,1,.21-9.38"/><path class="cls-1" d="M582.16-59.81a30.16,30.16,0,0,1-10.93.72c6.19,6.19,13.72,10.83,22,14.65,13.61,6.18,25.88,14,34.44,27.22,6.71,10.21,11.45,20.94,9.6,33.73-2.38,16-30.33,27-45.28,24.75C583.6,40,576.49,36.72,571.54,29.2c-.62-.93-4.23-6.61-6-7A11.33,11.33,0,0,0,566,34.25c5.88,8.77,13.2,15,23.93,16.19,15.05,1.65,28.56-2.27,40.94-10.83,13.2-9.18,17.95-21.55,14-37.64a77,77,0,0,0-21.25-37.13c-8.87-9-19.49-13.92-30.22-19.39A77.62,77.62,0,0,1,585-59.6a26.19,26.19,0,0,1-2.79-.21"/><path class="cls-1" d="M582-60.22a35.83,35.83,0,0,1-11,.82c6.19,6.19,13.82,10.93,22.17,14.75,13.72,6.29,26.1,14.13,34.76,27.43,6.81,10.32,11.65,21.15,9.69,34-2.47,16.19-30.63,27.23-45.79,25-8.45-1.34-15.67-4.64-20.62-12.28-.62-1-4.23-6.7-6-7.11a11.29,11.29,0,0,0,.42,12.17c6,8.87,13.4,15.16,24.23,16.4C605,52.71,618.67,48.69,631.15,40c13.3-9.28,18.15-21.65,14.13-37.95a79.33,79.33,0,0,0-21.56-37.44C614.75-44.44,604-49.5,593.2-55A70.55,70.55,0,0,1,584.74-60a26.17,26.17,0,0,1-2.79-.2"/><path class="cls-1" d="M633.42,66.53a7.09,7.09,0,0,1,1.65-5.47c2-2.06,5.26-1.34,7.12.31a5.55,5.55,0,0,1,.72.73,4.74,4.74,0,0,1-.62,6.7c-2.58,2.27-7.84,2.68-8.87-2.27"/><path class="cls-1" d="M633,66.63a8.13,8.13,0,0,1,1.75-5.88c2.17-2.26,5.67-1.44,7.74.31a3.4,3.4,0,0,1,.82.83,5.1,5.1,0,0,1-.72,7.22c-2.68,2.47-8.46,3-9.59-2.48"/><path class="cls-1" d="M605.16,78.91c-2.58,2.16-6.29,2.27-7.73-.52a6.08,6.08,0,0,1,.2-5.36c2-2.68,6.29-2.79,8-1,.1.2.31.31.41.51a4.62,4.62,0,0,1-.93,6.4"/><path class="cls-1" d="M605.37,79.22c-2.68,2.37-6.81,2.57-8.56-.62a7.26,7.26,0,0,1,.31-5.88c2.16-2.89,6.91-3.1,8.76-1.14.11.21.31.31.41.52a5.07,5.07,0,0,1-.92,7.12"/><path class="cls-1" d="M663.33,35.8c1.86,2.47,0,6-3,6.7a4.67,4.67,0,0,1-3.61-1.34,1.92,1.92,0,0,1-.41-.52,3.18,3.18,0,0,1,1-4.43c1.34-.93,4.43-2.48,6-.41"/><path class="cls-1" d="M663.64,35.49c2.16,2.78.1,6.6-3.41,7.53a5.13,5.13,0,0,1-3.91-1.55c-.11-.21-.31-.41-.42-.62a3.64,3.64,0,0,1,1.14-5c1.54-.93,5-2.68,6.6-.41"/><path class="cls-1" d="M912.92-59.09a26.38,26.38,0,0,1-7.12-4.64c-8.66,8.56-16.6,19.18-18.77,32.38-1.44,8.67-3.4,17.43-4.85,26.2C880.53,5.27,879.6,15.79,877.23,26c-6.19,26.4-18.67,33.52-43,36.2-8.76.93-18.15.41-27-3.51-7.73-3.5-13.51-8.25-17.74-15.67C783.58,32.6,777.19,22.59,769,13.83c-6.7-7.22-13.82-12.28-23.92-11.76-7.64.41-53,4.85-49.92-21.55,2.89-25.79,10.21-44.46,29.29-64.26,11.76-12.17,38-18.15,62.91-22.17a25.3,25.3,0,0,1-6.81-1,27.58,27.58,0,0,1-14.13-1.65,27.75,27.75,0,0,1-13.92-1c-18.56,6.19-36.1,16.51-49.09,35.28-9.7,13.82-14.75,29.39-17.33,46.1-1.75,11.76,1.45,22,8.67,30,5.36,6,13.61,8.36,21.76,8.56q9.59.31,19.18-.31c19.08-.93,26.4,6.81,37.23,22.49,5.47,7.94,12.17,30.94,38.88,36.71,17.23,3.82,33.83,2.48,49.92-5.46a35.64,35.64,0,0,0,16-15c6.19-10.62,8.45-22.38,10.31-34.34,2.17-14.44,3.82-29,6.81-43.22,1.44-7.32,7.32-16.91,12.06-23.31a65.9,65.9,0,0,1,6-7"/><path class="cls-1" d="M968.61-15.57A28.72,28.72,0,0,1,960-22.68c.82,9,3.71,17.84,7.73,26.4,6.6,14.13,11,28.57,9.49,44.66-1.24,12.58-4.23,24.13-13.72,32.8-12,10.72-40.32.2-50.43-11.87-5.67-6.7-9.08-14.12-8.15-23.3.1-1.14.93-8-.2-9.49a10.93,10.93,0,0,0-7.22,9.59c-.93,10.83.82,20.63,8.35,29,10.52,11.65,23.51,17.84,38.37,19.7,16,2.06,27.33-4.33,34.34-19.49,6.29-13.72,8.35-28.06,6.81-43.42C984,19,978.92,7.74,974.08-3.81a82,82,0,0,1-3.41-9.69,19.17,19.17,0,0,1-2.06-2.07"/><path class="cls-1" d="M928.9,116.45A7.67,7.67,0,0,1,934,113c3-.31,5.26,2.69,5.67,5.47.41,3.09-1.14,6.19-5,6.29-3.61.1-8.25-3.5-5.78-8.35"/><path class="cls-1" d="M900,107.47c-3.5-.1-6.7-2.78-6.18-6.29A6.48,6.48,0,0,1,897.65,97c3.41-.83,7.22,2.26,7.43,5.05v.93a4.7,4.7,0,0,1-5.06,4.53"/><path class="cls-1" d="M971.6,113.35c-.21,3.61-4.13,5.06-7,3.51a5.89,5.89,0,0,1-2.07-3.92,1.81,1.81,0,0,1,0-1,3.29,3.29,0,0,1,3.82-2.78c1.65.3,5.36,1.34,5.26,4.22"/><path class="cls-1" d="M1173.33-67.13a26.56,26.56,0,0,1-8.35,1.44c-.83,12.38.1,25.78,7,37.13,4.54,7.43,8.67,15.26,13.31,22.79,5.46,9,11.55,17.43,16.4,26.61,12.47,23.83,7.83,38-8.46,57-5.78,6.91-13.1,13-22.18,16.39-7.94,3-15.36,3.51-23.2.93-11-3.61-22.28-6.5-33.93-7.32-9.49-.62-18,.51-25.17,8-5.46,5.57-36.1,40.85-50.84,19.19-14.44-21-21-39.92-19.7-68.07.82-17.33,16.4-40.23,32.18-60.65-1.76,1.55-6-15.88-10.21-13.92-9.8,17.64-43.94,67.55-31.46,96.12,1.86,17,8,32.18,16.91,46.31,6.19,10,15.16,15.26,25.68,16.19,7.84.62,15.37-3.4,21.56-9,4.85-4.43,9.49-9,14-13.72,13.51-14.13,23.92-13.51,42-9.49,9.18,2.07,28.88,14.34,52.39-.1,15.17-9.28,26.51-22,33.32-39.09a38.18,38.18,0,0,0,2.16-22.27c-2.27-12.17-8.14-22.49-14.44-32.59-7.63-12.28-15.78-24.24-22.79-36.82-3.61-6.5-5.46-17.64-6.08-25.79-.21-3.09-.21-6.29-.11-9.38"/><path class="cls-1" d="M1243.05-73.32a31,31,0,0,1-11.14.82c6.4,6,14.24,10.42,22.69,13.93,13.93,5.77,26.51,13.3,35.69,26.19,7.12,10.11,12.27,20.73,10.83,33.73-1.86,16.19-29.6,28.36-44.87,26.61-8.45-1-15.67-4-20.93-11.45-.72-.93-4.54-6.5-6.29-6.81a11.5,11.5,0,0,0,.82,12.17c6.29,8.56,13.82,14.65,24.75,15.47,15.16,1.24,28.68-3.3,41-12.37,13.1-9.7,17.43-22.28,12.89-38.37a79,79,0,0,0-22.69-36.72c-9.38-8.56-20.21-13.2-31.25-18.35a69.39,69.39,0,0,1-8.66-4.75,26,26,0,0,1-2.79-.1"/><path class="cls-1" d="M1298.33,51.58a7.92,7.92,0,0,1,1.45-5.88c2.06-2.38,5.67-1.76,7.73,0a2.74,2.74,0,0,1,.83.72,5.11,5.11,0,0,1-.42,7.32c-2.57,2.58-8.35,3.2-9.59-2.16"/><path class="cls-1" d="M1271.21,65.19c-2.68,2.47-6.71,2.78-8.46-.31a6.73,6.73,0,0,1,.1-5.78c2-3,6.71-3.3,8.67-1.44.1.1.31.21.41.41a5.08,5.08,0,0,1-.72,7.12"/><path class="cls-1" d="M1328,19.29c2.16,2.79.2,6.71-2.89,7.53a5,5,0,0,1-4-1.34,2.42,2.42,0,0,1-.52-.62,3.52,3.52,0,0,1,.93-4.95c1.34-.93,4.74-2.78,6.5-.62"/><path class="cls-1" d="M1569.68-47.95a35.3,35.3,0,0,1-7-4.33C1554-43.72,1546.06-33.2,1543.9-20c-1.45,8.66-3.4,17.43-4.85,26.2-1.65,10.41-2.58,20.93-5,31.14-6.19,26.41-18.67,33.52-43,36.2-8.76.93-18.15.42-27-3.5-7.73-3.51-13.51-8.25-17.74-15.68-5.88-10.42-12.27-20.42-20.42-29.19-6.7-7.22-13.82-12.27-23.93-11.75-7.52.3-53,4.84-50-21.56,2.89-25.78,10.11-44.45,29.29-64.25,11.76-12.28,38-18.26,62.92-22.28a30,30,0,0,1-6.81-1,27.7,27.7,0,0,1-14.13-1.65,27.86,27.86,0,0,1-13.92-1c-18.57,6.08-36.1,16.5-49.1,35.27-9.69,13.82-14.74,29.39-17.32,46.1-1.76,11.76,1.44,22,8.66,30,5.36,6,13.62,8.36,21.76,8.56q9.6.32,19.19-.31c19.08-1,26.4,6.71,37.23,22.38,5.46,7.95,12.17,30.94,38.88,36.72,17.22,3.82,33.83,2.48,49.92-5.47a35.59,35.59,0,0,0,16-14.95c6.19-10.62,8.46-22.38,10.32-34.34,2.16-14.44,3.81-29,6.8-43.22,1.45-7.32,7.33-16.91,12.07-23.31a67,67,0,0,1,6-7"/><path class="cls-1" d="M1625.38-4.43a28.54,28.54,0,0,1-8.77-7,82.67,82.67,0,0,0,7.84,26.4c6.6,14.13,11.14,28.57,9.49,44.66-1.24,12.58-4.23,24.24-13.72,32.8-12,10.72-40.33.2-50.43-11.86-5.68-6.71-9.08-14.13-8.15-23.31.1-1.14.93-8-.21-9.49a10.94,10.94,0,0,0-7.22,9.59c-.93,10.83.83,20.63,8.36,29,10.52,11.55,23.51,17.74,38.36,19.6,16,2.06,27.33-4.33,34.35-19.49,6.29-13.72,8.35-28.06,6.8-43.42-1.34-12.9-6.39-24.14-11.24-35.69a83.78,83.78,0,0,1-3.4-9.69,18.3,18.3,0,0,1-2.06-2.07"/><path class="cls-1" d="M1585.67,127.59a7.42,7.42,0,0,1,5-3.41c3-.31,5.26,2.79,5.67,5.47.42,3.09-1.13,6.19-5,6.29-3.61.1-8.25-3.51-5.77-8.35"/><path class="cls-1" d="M1556.79,118.61c-3.51-.1-6.7-2.78-6.19-6.18a6.49,6.49,0,0,1,3.82-4.23c3.51-.83,7.22,2.27,7.42,5v.93a4.67,4.67,0,0,1-5,4.43"/><path class="cls-1" d="M1628.37,124.49c-.21,3.61-4.13,5.06-7.12,3.51a5.45,5.45,0,0,1-2.06-3.82,1.65,1.65,0,0,1,0-1,3.39,3.39,0,0,1,3.92-2.78c1.75.2,5.36,1.23,5.26,4.12"/><path class="cls-1" d="M1830-56a25.82,25.82,0,0,1-8.46,1.44c-.83,12.38.1,25.78,7,37.13,4.54,7.53,8.67,15.26,13.31,22.79,5.46,9,11.55,17.33,16.4,26.61,12.47,23.82,7.83,38-8.46,57-5.78,6.91-13.1,13-22.18,16.4-7.94,3-15.36,3.51-23.2.93-11-3.61-22.28-6.5-33.93-7.32-9.49-.62-18,.51-25.17,8-5.36,5.67-36,40.84-50.84,19.19-14.44-21-21-39.92-19.7-68.07.82-17.33,16.4-40.23,32.18-60.65-1.76,1.55-6-15.88-10.21-13.92-9.8,17.64-43.94,67.55-31.46,96.12,1.86,17,8,32.18,16.91,46.31,6.19,10,15.16,15.26,25.68,16.19,7.84.72,15.37-3.4,21.56-9,4.85-4.44,9.49-9,14-13.72,13.51-14.13,23.92-13.51,42-9.49,9.18,2.07,28.88,14.34,52.39-.1,15.17-9.28,26.51-22,33.32-39.09a38.21,38.21,0,0,0,2.16-22.28C1871,36.41,1865.17,26.1,1858.87,16c-7.63-12.27-15.78-24.23-22.79-36.82-3.51-6.49-5.36-17.63-6-25.78A91.73,91.73,0,0,1,1830-56"/><path class="cls-1" d="M1899.82-62.18a30.64,30.64,0,0,1-11,.82c6.4,6,14.24,10.42,22.69,13.93,14,5.77,26.51,13.3,35.69,26.19,7.11,10.11,12.27,20.73,10.83,33.73-1.86,16.19-29.6,28.36-44.87,26.61-8.56-1-15.78-4-21-11.45-.72-.93-4.53-6.5-6.29-6.81a11.52,11.52,0,0,0,.83,12.17c6.29,8.56,13.82,14.65,24.75,15.47,15.16,1.24,28.67-3.3,40.94-12.37,13.1-9.7,17.43-22.28,12.9-38.37A79.26,79.26,0,0,0,1942.41-39c-9.28-8.56-20.11-13.3-31.14-18.36a71.51,71.51,0,0,1-8.67-4.74,25.92,25.92,0,0,1-2.78-.1"/><path class="cls-1" d="M1955.1,62.71a8.34,8.34,0,0,1,1.44-6c2.07-2.37,5.68-1.75,7.74,0a2.71,2.71,0,0,1,.82.72,5.24,5.24,0,0,1-.41,7.43c-2.58,2.58-8.35,3.2-9.59-2.17"/><path class="cls-1" d="M1928,76.33c-2.68,2.47-6.7,2.78-8.45-.31a6.66,6.66,0,0,1,.1-5.78c2-3,6.7-3.3,8.66-1.44a1.61,1.61,0,0,1,.42.41,5.07,5.07,0,0,1-.73,7.12"/><path class="cls-1" d="M1984.7,30.43c2.27,2.79.31,6.71-3,7.53a5,5,0,0,1-3.92-1.34,2.85,2.85,0,0,1-.52-.62,3.52,3.52,0,0,1,.93-4.95c1.34-.93,4.75-2.78,6.5-.62"/><polyline class="cls-2" points="1985.63 334.06 1985.63 -123.75 80.1 -123.75"/></svg>